@startuml

package api {
  class 三択問題登録申請書 {
      - String 問題文
      - String 選択肢A
      - String 選択肢B
      - String 選択肢C
      - String 正解選択肢
      - String 解説
    + 三択クイズ情報 create()
  }
}
package domain {
  class 三択クイズ情報 {
  }

  class "三択クイズ<Entity>" as 三択クイズ {
    - 三択クイズ番号
    - 三択クイズ情報
    + static create(三択クイズ番号, 三択クイズ情報)
  }

  interface 三択クイズRepository {
    + 三択クイズ番号 番号を払い出す()
    + void 三択クイズを登録する(三択クイズ)
  }

  class 三択クイズ番号 {
    - Integer
  }
    package question {
        class 問題文 {
            - String
        }
        三択問題 --> 問題文
        三択問題 --> "List<三択クイズ選択肢>"
    }
    package answer {
        class 解説 {
            - String
        }
        三択回答 --> 解説
    }
    class 三択クイズ選択肢 {
        - String
    }
    三択クイズRepository --> 三択クイズ
    三択クイズRepository --> 三択クイズ番号
    三択クイズ --> 三択クイズ番号
    三択クイズ --> 三択クイズ情報
    三択クイズ情報 --> 三択問題
    三択クイズ情報 --> 三択回答
    "List<三択クイズ選択肢>" --> 三択クイズ選択肢
    三択回答 --> 三択クイズ選択肢

}

三択問題登録申請書 --> 三択クイズ情報


@enduml
